<?xml version="1.0" encoding="UTF-8" standalone="no"?>
<!DOCTYPE svg PUBLIC "-//W3C//DTD SVG 1.0//EN" "http://www.w3.org/TR/2001/PR-SVG-20010719/DTD/svg10.dtd">
<svg width="19cm" height="14cm" viewBox="314 184 378 267" xmlns="http://www.w3.org/2000/svg" xmlns:xlink="http://www.w3.org/1999/xlink">
  <line style="fill: none; fill-opacity:0; stroke-width: 1; stroke: #000000" x1="330.282" y1="450.108" x2="691.863" y2="449.522"/>
  <g>
    <line style="fill: none; fill-opacity:0; stroke-width: 1; stroke: #000000" x1="330.28" y1="450.441" x2="330.28" y2="196.5"/>
    <polygon style="fill: #000000" points="335.28,196.5 330.28,186.5 325.28,196.5 "/>
    <polygon style="fill: none; fill-opacity:0; stroke-width: 1; stroke: #000000" points="335.28,196.5 330.28,186.5 325.28,196.5 "/>
  </g>
  <line style="fill: none; fill-opacity:0; stroke-width: 0.02; stroke: #000000" x1="330.146" y1="249.635" x2="338.152" y2="249.635"/>
  <line style="fill: none; fill-opacity:0; stroke-width: 0.02; stroke: #000000" x1="330.13" y1="399.77" x2="338.135" y2="399.77"/>
  <line style="fill: none; fill-opacity:0; stroke-width: 0.02; stroke: #000000" x1="329.98" y1="349.77" x2="337.985" y2="349.77"/>
  <line style="fill: none; fill-opacity:0; stroke-width: 0.02; stroke: #000000" x1="329.83" y1="299.77" x2="337.835" y2="299.77"/>
  <text font-size="8.46654" style="fill: #000000;text-anchor:start;font-family:sans-serif;font-style:normal;font-weight:normal" x="314.78" y="403.27">
    <tspan x="314.78" y="403.27">10</tspan>
  </text>
  <text font-size="8.46654" style="fill: #000000;text-anchor:start;font-family:sans-serif;font-style:normal;font-weight:normal" x="314.78" y="352.77">
    <tspan x="314.78" y="352.77">20</tspan>
  </text>
  <text font-size="8.46654" style="fill: #000000;text-anchor:start;font-family:sans-serif;font-style:normal;font-weight:normal" x="314.78" y="302.77">
    <tspan x="314.78" y="302.77">30</tspan>
  </text>
  <text font-size="8.46654" style="fill: #000000;text-anchor:start;font-family:sans-serif;font-style:normal;font-weight:normal" x="314.78" y="252.77">
    <tspan x="314.78" y="252.77">40</tspan>
  </text>
  <g>
    <rect style="fill: #000000" x="350.615" y="274.301" width="19.5" height="175.307"/>
    <rect style="fill: none; fill-opacity:0; stroke-width: 1; stroke: #000000" x="350.615" y="274.301" width="19.5" height="175.307"/>
  </g>
  <g>
    <rect style="fill: #9e9e9e" x="370.282" y="253.634" width="19" height="195.974"/>
    <rect style="fill: none; fill-opacity:0; stroke-width: 1; stroke: #000000" x="370.282" y="253.634" width="19" height="195.974"/>
  </g>
  <g>
    <rect style="fill: #d2d2d2" x="389.782" y="230.301" width="20" height="219.307"/>
    <rect style="fill: none; fill-opacity:0; stroke-width: 1; stroke: #000000" x="389.782" y="230.301" width="20" height="219.307"/>
  </g>
  <g>
    <rect style="fill: #ffffff" x="409.948" y="219.301" width="19.5" height="230.307"/>
    <rect style="fill: none; fill-opacity:0; stroke-width: 1; stroke: #000000" x="409.948" y="219.301" width="19.5" height="230.307"/>
  </g>
  <g>
    <rect style="fill: #000000" x="469.782" y="410.968" width="20.5" height="38.6405"/>
    <rect style="fill: none; fill-opacity:0; stroke-width: 1; stroke: #000000" x="469.782" y="410.968" width="20.5" height="38.6405"/>
  </g>
  <g>
    <rect style="fill: #9e9e9e" x="490.282" y="403.301" width="20.5" height="46.3072"/>
    <rect style="fill: none; fill-opacity:0; stroke-width: 1; stroke: #000000" x="490.282" y="403.301" width="20.5" height="46.3072"/>
  </g>
  <g>
    <rect style="fill: #d2d2d2" x="509.782" y="394.301" width="20" height="55.3072"/>
    <rect style="fill: none; fill-opacity:0; stroke-width: 1; stroke: #000000" x="509.782" y="394.301" width="20" height="55.3072"/>
  </g>
  <g>
    <rect style="fill: #ffffff" x="529.948" y="385.634" width="20" height="63.9738"/>
    <rect style="fill: none; fill-opacity:0; stroke-width: 1; stroke: #000000" x="529.948" y="385.634" width="20" height="63.9738"/>
  </g>
  <g>
    <rect style="fill: #000000" x="589.346" y="426.522" width="20.5" height="22.7523"/>
    <rect style="fill: none; fill-opacity:0; stroke-width: 1; stroke: #000000" x="589.346" y="426.522" width="20.5" height="22.7523"/>
  </g>
  <g>
    <rect style="fill: #9e9e9e" x="609.68" y="425.022" width="20.5" height="24.2523"/>
    <rect style="fill: none; fill-opacity:0; stroke-width: 1; stroke: #000000" x="609.68" y="425.022" width="20.5" height="24.2523"/>
  </g>
  <g>
    <rect style="fill: #d2d2d2" x="630.58" y="422.522" width="20.5" height="27.0857"/>
    <rect style="fill: none; fill-opacity:0; stroke-width: 1; stroke: #000000" x="630.58" y="422.522" width="20.5" height="27.0857"/>
  </g>
  <g>
    <rect style="fill: #ffffff" x="651.48" y="417.522" width="20.5" height="32.0857"/>
    <rect style="fill: none; fill-opacity:0; stroke-width: 1; stroke: #000000" x="651.48" y="417.522" width="20.5" height="32.0857"/>
  </g>
</svg>
